<?xml version="1.0" encoding="UTF-8" standalone="no"?>
<!-- Created with Inkscape (http://www.inkscape.org/) -->

<svg
   xmlns:dc="http://purl.org/dc/elements/1.1/"
   xmlns:cc="http://creativecommons.org/ns#"
   xmlns:rdf="http://www.w3.org/1999/02/22-rdf-syntax-ns#"
   xmlns:svg="http://www.w3.org/2000/svg"
   xmlns="http://www.w3.org/2000/svg"
   xmlns:sodipodi="http://sodipodi.sourceforge.net/DTD/sodipodi-0.dtd"
   xmlns:inkscape="http://www.inkscape.org/namespaces/inkscape"
   width="95.240723mm"
   height="20.108334mm"
   viewBox="0 0 95.240723 20.108334"
   version="1.1"
   id="svg958"
   sodipodi:docname="logo__.svg"
   inkscape:version="0.92.4 (5da689c313, 2019-01-14)">
  <defs
     id="defs952" />
  <sodipodi:namedview
     id="base"
     pagecolor="#ffffff"
     bordercolor="#666666"
     borderopacity="1.0"
     inkscape:pageopacity="0.0"
     inkscape:pageshadow="2"
     inkscape:zoom="0.41274109"
     inkscape:cx="49.224509"
     inkscape:cy="86.968415"
     inkscape:document-units="mm"
     inkscape:current-layer="layer4"
     showgrid="false"
     inkscape:window-width="1366"
     inkscape:window-height="705"
     inkscape:window-x="-8"
     inkscape:window-y="-8"
     inkscape:window-maximized="1"
     fit-margin-top="0"
     fit-margin-left="0"
     fit-margin-right="0"
     fit-margin-bottom="0" />
  <metadata
     id="metadata955">
    <rdf:RDF>
      <cc:Work
         rdf:about="">
        <dc:format>image/svg+xml</dc:format>
        <dc:type
           rdf:resource="http://purl.org/dc/dcmitype/StillImage" />
        <dc:title></dc:title>
      </cc:Work>
    </rdf:RDF>
  </metadata>
  <g
     inkscape:groupmode="layer"
     id="layer4"
     inkscape:label="Layer 2"
     transform="translate(-53.145148,-59.747676)">
    <g
       id="g1585"
       transform="matrix(0.93781822,0,0,1.0845556,4.3958068,-56.595673)"
       style="stroke-width:0.99155033">
      <g
         id="g1625"
         style="stroke-width:0.99155033">
        <g
           transform="translate(19.100588,-3.64013)"
           id="g919"
           style="stroke-width:0.99155033">
          <path
             id="path819"
             d="M 68.117619,125.07807 H 66.40058 c -0.282808,0 -0.395348,-0.13435 -0.337602,-0.40309 l 1.930162,-8.98339 c 0.05776,-0.26873 0.228014,-0.4031 0.510822,-0.4031 h 1.717039 c 0.282799,0 0.395339,0.13437 0.337602,0.4031 l -0.136108,0.63344 h 0.0808 c 0.227591,-0.30712 0.550534,-0.55666 0.968862,-0.74861 0.431787,-0.19195 0.896811,-0.28793 1.395098,-0.28793 h 0.565598 c 1.171634,0 1.925328,0.4095 2.261099,1.2285 0.63385,-0.819 1.509657,-1.2285 2.627421,-1.2285 h 0.585817 c 1.036959,0 1.760299,0.26873 2.170038,0.8062 0.423188,0.53747 0.526188,1.31168 0.308974,2.32263 l -1.344518,6.25766 c -0.05775,0.26874 -0.228014,0.40309 -0.510813,0.40309 h -1.717039 c -0.282825,0 -0.395339,-0.13435 -0.337602,-0.40309 l 1.319767,-6.14249 c 0.08799,-0.40949 0.06233,-0.69743 -0.07701,-0.86379 -0.136582,-0.17915 -0.420348,-0.26873 -0.851281,-0.26873 h -0.505021 c -0.92921,0 -1.499686,0.49268 -1.711402,1.47804 l -1.245531,5.79697 c -0.05776,0.26874 -0.234731,0.40309 -0.531006,0.40309 h -1.696847 c -0.282799,0 -0.395347,-0.13435 -0.337601,-0.40309 l 1.319766,-6.14249 c 0.08799,-0.40949 0.0556,-0.69743 -0.09721,-0.86379 -0.136582,-0.17915 -0.420331,-0.26873 -0.851281,-0.26873 h -0.626219 c -0.929211,0 -1.498305,0.48628 -1.707275,1.45883 l -1.249659,5.81618 c -0.05775,0.26874 -0.228014,0.40309 -0.510813,0.40309 z"
             inkscape:connector-curvature="0"
             style="fill:#ffffff;stroke-width:0.26234767" />
          <path
             sodipodi:nodetypes="csccccssccccscccssccccccscccssccccc"
             id="path821"
             d="m 89.688742,125.07807 h -4.464338 c -1.063885,0 -1.827637,-0.26873 -2.291228,-0.80621 -0.463599,-0.53745 -0.586792,-1.31167 -0.369577,-2.32262 l 0.758864,-3.53192 c 0.217215,-1.01095 0.673097,-1.78516 1.367654,-2.32263 0.694549,-0.53747 1.573784,-0.8062 2.637669,-0.8062 h 1.595841 c 1.063885,0 1.827636,0.26873 2.29121,0.8062 0.463548,0.53747 0.586836,1.31168 0.369621,2.32263 l -0.32226,1.49987 c -1.177477,0.7245 -1.234587,0.69495 -2.501266,1.34101 h -3.281415 c -0.161601,0 -0.257522,0.0704 -0.287763,0.21117 l -0.09074,0.4223 c -0.08521,0.39669 -0.05957,0.68461 0.07701,0.86378 0.152795,0.16635 0.444676,0.24953 0.8756,0.24953 h 4.080533 c 0.282773,0 0.393923,0.14076 0.333432,0.4223 l -0.272207,1.26688 c -0.03021,0.14076 -0.08581,0.24315 -0.166944,0.30713 -0.06492,0.0512 -0.17822,0.0768 -0.339699,0.0768 z m -3.858666,-5.45145 h 2.747274 c 0.148124,0 0.23732,-0.0704 0.26757,-0.21116 l 0.197963,-0.92136 c 0.08799,-0.40949 0.06233,-0.69743 -0.07701,-0.86379 -0.13931,-0.16636 -0.424449,-0.24954 -0.855399,-0.24954 h -0.848423 c -0.430924,0 -0.751812,0.0832 -0.962638,0.24954 -0.2108,0.16636 -0.36022,0.4543 -0.448198,0.86379 l -0.197963,0.92136 c -0.03022,0.14078 0.02875,0.21116 0.176829,0.21116 z"
             inkscape:connector-curvature="0"
             style="fill:#ffffff;stroke-width:0.26234767" />
          <path
             id="path823"
             d="m 93.73167,125.07807 h -2.040197 c -0.350154,0 -0.415626,-0.13435 -0.196168,-0.40309 l 3.530924,-4.58766 -1.600762,-4.39573 c -0.07701,-0.26873 0.03272,-0.4031 0.32896,-0.4031 h 2.060295 c 0.32321,0 0.503113,0.13437 0.539699,0.4031 l 0.645834,2.91768 h 0.08063 l 1.737896,-2.91768 c 0.152079,-0.26873 0.389719,-0.4031 0.712929,-0.4031 h 2.02009 c 0.35016,0 0.40877,0.13437 0.17584,0.4031 l -3.368392,4.39573 1.620047,4.58766 c 0.04264,0.11517 0.02883,0.21114 -0.04152,0.28792 -0.05689,0.0768 -0.152657,0.11517 -0.287427,0.11517 h -2.080625 c -0.282774,0 -0.455822,-0.13435 -0.519369,-0.40309 l -0.641715,-2.93688 h -0.08063 l -1.903736,2.93688 c -0.152078,0.26874 -0.382864,0.40309 -0.692589,0.40309 z"
             inkscape:connector-curvature="0"
             style="fill:#ffffff;stroke-width:0.26234767" />
          <path
             id="path825"
             d="m 105.02196,125.07807 h -0.48493 c -1.06373,0 -1.82759,-0.26873 -2.29114,-0.80621 -0.46355,-0.53745 -0.58683,-1.31167 -0.36962,-2.32262 l 0.75887,-3.53192 c 0.21721,-1.01095 0.67319,-1.78516 1.36769,-2.32263 0.69451,-0.53747 1.57386,-0.8062 2.63759,-0.8062 h 4.6665 c 0.29625,0 0.41539,0.13437 0.35766,0.4031 l -1.93017,8.98339 c -0.0578,0.26874 -0.23462,0.40309 -0.53087,0.40309 h -1.69689 c -0.28278,0 -0.39531,-0.13435 -0.33756,-0.40309 l 0.1361,-0.63344 h -0.0809 c -0.22247,0.34549 -0.54129,0.60783 -0.9569,0.787 -0.41285,0.16635 -0.82794,0.24953 -1.24548,0.24953 z m 2.82763,-3.57031 0.83724,-3.89664 c 0.0302,-0.14077 -0.0355,-0.21115 -0.19721,-0.21115 h -1.89881 c -0.43079,0 -0.75314,0.0896 -0.9666,0.26873 -0.21094,0.16636 -0.36029,0.4543 -0.44827,0.86379 l -0.70938,3.30158 c -0.088,0.40949 -0.0637,0.70382 0.073,0.88299 0.13923,0.16635 0.42446,0.24953 0.85525,0.24953 h 0.74737 c 0.92942,0 1.49849,-0.48628 1.70746,-1.45883 z"
             inkscape:connector-curvature="0"
             style="fill:#ffffff;stroke-width:0.26234767" />
          <path
             id="path827"
             d="m 114.6976,122.31394 -0.50728,2.36104 c -0.0578,0.26874 -0.21452,0.40309 -0.47058,0.40309 h -1.79785 c -0.2693,0 -0.37496,-0.13435 -0.31723,-0.40309 l 0.50317,-2.34183 c 0.055,-0.25593 0.21702,-0.38391 0.48632,-0.38391 h 1.79785 c 0.25605,0 0.35784,0.12158 0.3056,0.3647 z"
             inkscape:connector-curvature="0"
             style="fill:#4cd62b;fill-opacity:1;stroke-width:0.26234767" />
          <path
             id="path829"
             d="M 119.88304,125.07807 H 116.045 c -0.2693,0 -0.3752,-0.13435 -0.31746,-0.40309 l 0.26396,-1.22851 c 0.0302,-0.14076 0.0778,-0.23673 0.14272,-0.28792 0.0677,-0.064 0.18211,-0.096 0.34382,-0.096 h 3.37346 c 0.65989,0 1.03096,-0.19195 1.11345,-0.57586 l 0.0206,-0.096 c 0.066,-0.30711 -0.1467,-0.60145 -0.63852,-0.88297 l -1.77293,-1.05574 c -0.61535,-0.33272 -1.04339,-0.69104 -1.2841,-1.07495 -0.24074,-0.38389 -0.29637,-0.87657 -0.16714,-1.47802 0.19247,-0.89578 0.58305,-1.55482 1.17218,-1.97712 0.58891,-0.42229 1.41544,-0.63344 2.4794,-0.63344 h 3.37345 c 0.2693,0 0.3752,0.13437 0.31746,0.4031 l -0.26808,1.24769 c -0.0302,0.14077 -0.0792,0.24314 -0.14685,0.30713 -0.0649,0.0512 -0.17822,0.0768 -0.33971,0.0768 h -2.80789 c -0.65989,0 -1.02432,0.15996 -1.09306,0.47988 l -0.0206,0.096 c -0.0605,0.28152 0.16728,0.56947 0.68307,0.86379 l 1.79274,1.1517 c 0.62334,0.35833 1.03515,0.72943 1.23543,1.11334 0.20327,0.37111 0.23881,0.86379 0.10683,1.47802 -0.36843,1.71479 -1.60998,2.57217 -3.72419,2.57217 z"
             inkscape:connector-curvature="0"
             style="fill:#ffffff;stroke-width:0.26234767" />
          <path
             style="fill:#ffffff;stroke-width:0.26234767"
             inkscape:connector-curvature="0"
             d="m 132.43705,125.07807 h -4.46434 c -1.06388,0 -1.82763,-0.26873 -2.29122,-0.80621 -0.4636,-0.53745 -0.5868,-1.31167 -0.36958,-2.32262 l 0.75886,-3.53192 c 0.21722,-1.01095 0.6731,-1.78516 1.36766,-2.32263 0.69455,-0.53747 1.57378,-0.8062 2.63767,-0.8062 h 1.59584 c 1.06388,0 1.82763,0.26873 2.29121,0.8062 0.46354,0.53747 0.58683,1.31168 0.36962,2.32263 l -0.32226,1.49987 c -1.17748,0.7245 -1.23459,0.69495 -2.50127,1.34101 h -3.28141 c -0.1616,0 -0.25753,0.0704 -0.28777,0.21117 l -0.0907,0.4223 c -0.0852,0.39669 -0.0596,0.68461 0.077,0.86378 0.1528,0.16635 0.44468,0.24953 0.8756,0.24953 h 4.08054 c 0.28277,0 0.39392,0.14076 0.33343,0.4223 l -0.27221,1.26688 c -0.0302,0.14076 -0.0858,0.24315 -0.16694,0.30713 -0.0649,0.0512 -0.17822,0.0768 -0.3397,0.0768 z m -3.85866,-5.45145 h 2.74727 c 0.14812,0 0.23732,-0.0704 0.26757,-0.21116 l 0.19796,-0.92136 c 0.088,-0.40949 0.0623,-0.69743 -0.077,-0.86379 -0.13931,-0.16636 -0.42445,-0.24954 -0.8554,-0.24954 h -0.84842 c -0.43092,0 -0.75181,0.0832 -0.96264,0.24954 -0.2108,0.16636 -0.36022,0.4543 -0.4482,0.86379 l -0.19796,0.92136 c -0.0302,0.14078 0.0288,0.21116 0.17683,0.21116 z"
             id="path1587"
             sodipodi:nodetypes="csccccssccccscccssccccccscccssccccc" />
        </g>
        <path
           style="fill:#ffffff;stroke-width:0.26234767"
           inkscape:connector-curvature="0"
           d="m 77.555376,110.90883 c 0.96002,0 1.73825,-0.77823 1.73825,-1.73825 0,-0.96002 -0.77823,-1.73825 -1.73825,-1.73825 -0.96003,0 -1.73826,0.77823 -1.73826,1.73825 0,0.96002 0.77823,1.73825 1.73826,1.73825 z m -5.732971,8.02022 -0.535964,1.25009 h -2.422326 c -0.639893,0 -1.158832,0.51894 -1.158832,1.15883 0,0.6399 0.518939,1.15884 1.158832,1.15884 h 2.804744 c 0.69711,0 1.324693,-0.41428 1.597378,-1.05346 l 0.318319,-0.7431 -0.386398,-0.22814 c -0.627221,-0.37046 -1.08858,-0.91874 -1.375753,-1.54306 z m 9.788891,-3.38525 h -1.59449 l -0.94372,-1.92837 c -0.45267,-0.92525 -1.28377,-1.60172 -2.23728,-1.84472 l -2.57406,-0.76555 c -1.024839,-0.24626 -2.092057,-0.0199 -2.927504,0.6207 l -1.43659,1.10125 c -0.508077,0.3893 -0.604406,1.11647 -0.214384,1.62454 0.390018,0.50808 1.116826,0.60332 1.62454,0.21439 l 1.437316,-1.10126 c 0.277758,-0.21329 0.631562,-0.2897 0.915122,-0.22235 l 0.53234,0.15825 -1.356564,3.16471 c -0.457017,1.06758 -0.04744,2.31803 0.952414,2.90831 l 3.07743,1.81683 -0.99479,3.17702 c -0.1912,0.61056 0.14884,1.2606 0.7594,1.4518 0.11552,0.0362 0.23213,0.0536 0.34693,0.0536 0.49287,0 0.94988,-0.31759 1.10524,-0.813 l 1.14579,-3.65974 c 0.21403,-0.75216 -0.10465,-1.56008 -0.78366,-1.96965 l -2.21772,-1.30876 1.13385,-2.8348 0.73405,1.50033 c 0.28971,0.59173 0.90244,0.97378 1.56117,0.97378 h 1.95517 c 0.63989,0 1.15883,-0.51894 1.15883,-1.15884 0,-0.63989 -0.51894,-1.15847 -1.15883,-1.15847 z"
           id="path895"
           transform="translate(-1.1964618e-6,-0.1595)" />
        <path
           style="fill:#ffffff;stroke:#ffffff;stroke-width:0.26234767px;stroke-linecap:butt;stroke-linejoin:miter;stroke-opacity:1"
           d="m 61.684704,110.91697 h 3.509531 v 2.28968 h -3.509632 z"
           id="path1576"
           inkscape:connector-curvature="0"
           sodipodi:nodetypes="ccccc" />
      </g>
      <path
         style="fill:#ffffff;stroke:#ffffff;stroke-width:0.26234767px;stroke-linecap:butt;stroke-linejoin:miter;stroke-opacity:1"
         d="m 56.076165,115.39831 h 9.11807 v 2.28968 h -9.11833 z"
         id="path1578"
         inkscape:connector-curvature="0"
         sodipodi:nodetypes="ccccc" />
      <path
         sodipodi:nodetypes="ccccc"
         inkscape:connector-curvature="0"
         id="path1580"
         d="m 52.113221,119.87963 h 13.081014 v 2.28968 H 52.112848 Z"
         style="fill:#ffffff;stroke:#ffffff;stroke-width:0.26234767px;stroke-linecap:butt;stroke-linejoin:miter;stroke-opacity:1" />
    </g>
  </g>
</svg>
